<?xml version="1.0" encoding="utf-8"?>
<svg version="1.1" xmlns:xlink="http://www.w3.org/1999/xlink" width="150px" height="150px" xmlns="http://www.w3.org/2000/svg">
  <g transform="matrix(1 0 0 1 -595 -60 )">
    <path d="M 595 60  L 745 60  L 745 210  L 595 210  L 595 60  " fill-rule="nonzero" fill="#cccccc" stroke="none" />
    <path d="M 606 71  L 734 71  L 734 199  L 606 199  L 606 71  " fill-rule="nonzero" fill="#ffffff" stroke="none" />
    <path d="M 684.25 105  C 677.95 105  673 100.05  673 93.75  C 673 87.45  677.95 82.5  684.25 82.5  C 690.55 82.5  695.5 87.45  695.5 93.75  C 695.5 100.05  690.55 105  684.25 105  " fill-rule="nonzero" fill="#cccccc" stroke="none" />
    <path d="M 610 195  L 610 129  L 640 99  L 682 123  L 706 117  L 730 123  L 730 195  L 610 195  " fill-rule="nonzero" fill="#169bd5" stroke="none" />
    <path d="M 595.5 209.5  L 595.5 60.5  L 744.5 60.5  L 744.5 209.5  L 595.5 209.5  Z " stroke-width="1" stroke="#d7d7d7" fill="none" />
  </g>
</svg>